<svg xmlns="http://www.w3.org/2000/svg" viewBox="0 0 64 64">
  <rect width="64" height="64" rx="14" fill="#ffffff"/>
  <circle cx="32" cy="32" r="28" fill="none" stroke="#FFD700" stroke-width="1.5" opacity="0.5"/>
  <circle cx="32" cy="32" r="23" fill="none" stroke="#00B4FF" stroke-width="2.5"/>
  <circle cx="32" cy="32" r="16" fill="none" stroke="#FFD700" stroke-width="2"/>
  <circle cx="32" cy="32" r="9"  fill="none" stroke="#00B4FF" stroke-width="1.8"/>
  <circle cx="32" cy="32" r="4"  fill="#FFD700"/>
  <circle cx="32" cy="32" r="1.8" fill="#ffffff"/>
  <line x1="32" y1="3"  x2="32" y2="11" stroke="#00B4FF" stroke-width="2.5" stroke-linecap="round"/>
  <line x1="32" y1="53" x2="32" y2="61" stroke="#00B4FF" stroke-width="2.5" stroke-linecap="round"/>
  <line x1="3"  y1="32" x2="11" y2="32" stroke="#00B4FF" stroke-width="2.5" stroke-linecap="round"/>
  <line x1="53" y1="32" x2="61" y2="32" stroke="#00B4FF" stroke-width="2.5" stroke-linecap="round"/>
  <line x1="8"  y1="8"  x2="13" y2="13" stroke="#FFD700" stroke-width="1.8" stroke-linecap="round"/>
  <line x1="56" y1="8"  x2="51" y2="13" stroke="#FFD700" stroke-width="1.8" stroke-linecap="round"/>
  <line x1="8"  y1="56" x2="13" y2="51" stroke="#FFD700" stroke-width="1.8" stroke-linecap="round"/>
  <line x1="56" y1="56" x2="51" y2="51" stroke="#FFD700" stroke-width="1.8" stroke-linecap="round"/>
  <line x1="32" y1="14" x2="32" y2="18" stroke="#00B4FF" stroke-width="1.5" stroke-linecap="round" opacity="0.6"/>
  <line x1="32" y1="46" x2="32" y2="50" stroke="#00B4FF" stroke-width="1.5" stroke-linecap="round" opacity="0.6"/>
  <line x1="14" y1="32" x2="18" y2="32" stroke="#00B4FF" stroke-width="1.5" stroke-linecap="round" opacity="0.6"/>
  <line x1="46" y1="32" x2="50" y2="32" stroke="#00B4FF" stroke-width="1.5" stroke-linecap="round" opacity="0.6"/>
</svg>
